<?xml version="1.0" standalone="no"?>
<!DOCTYPE svg PUBLIC "-//W3C//DTD SVG 20010904//EN" "http://www.w3.org/TR/2001/REC-SVG-20010904/DTD/svg10.dtd">
<svg xmlns="http://www.w3.org/2000/svg" version="1.0" width="512.000000pt" height="512.000000pt" viewBox="0 0 512.000000 512.000000" preserveAspectRatio="xMidYMid meet">
<metadata>
Created by potrace 1.15, written by Peter Selinger 2001-2017
</metadata>
<g transform="translate(0.000000,512.000000) scale(0.100000,-0.100000)" fill="#000000" stroke="none">
<path xmlns="http://www.w3.org/2000/svg" d="M4218 5109 c-70 -10 -219 -59 -290 -95 -87 -44 -208 -128 -286 -198 -230 -209 -363 -437 -412 -710 -14 -75 -8 -257 10 -334 6 -24 60 -180 120 -347 124 -344 173 -501 230 -730 63 -260 99 -494 120 -774 6 -80 12 -146 14 -148 4 -5 261 266 382 402 394 443 629 817 752 1195 101 311 118 598 52 900 -73 337 -266 641 -507 799 -81 53 -87 55 -185 40z" fill="#24932C"/>
<path xmlns="http://www.w3.org/2000/svg" d="M800 4793 c-158 -12 -346 -51 -524 -110 l-109 -36 6 -181 c6 -190 19 -285 62 -444 122 -444 403 -790 810 -997 142 -71 288 -122 715 -246 583 -169 832 -257 1098 -389 301 -150 551 -344 745 -580 43 -53 43 -55 22 116 -73 587 -321 1241 -667 1754 -512 759 -1321 1176 -2158 1113z" fill="#F0310F"/>
<path xmlns="http://www.w3.org/2000/svg" d="M2753 2273 c-56 -98 -170 -263 -298 -433 -199 -264 -306 -445 -400 -680 -105 -260 -159 -514 -171 -795 -5 -123 7 -349 19 -361 9 -9 226 28 353 61 483 124 860 392 1119 795 130 202 237 501 260 730 l7 65 -47 64 c-101 137 -280 297 -479 426 -72 47 -314 175 -330 175 -3 0 -17 -21 -33 -47z" fill="#0FC4F0"/>
</g>
</svg>
